<?xml version="1.0" encoding="iso-8859-1"?>
<!-- Generator: Adobe Illustrator 18.1.1, SVG Export Plug-In . SVG Version: 6.00 Build 0)  -->
<svg version="1.1" id="Capa_1" xmlns="http://www.w3.org/2000/svg" xmlns:xlink="http://www.w3.org/1999/xlink" x="0px" y="0px"
	 viewBox="0 0 17.525 17.525" style="enable-background:new 0 0 17.525 17.525;" xml:space="preserve">
<g>
	<path style="fill:#030104;" d="M10.027,0.656C9.745,0.26,9.286,0,8.764,0c-0.526,0-0.989,0.263-1.27,0.664
		C4.092,1.087,1.032,3.667,1.032,6.796v5.188c0,0,0.142-0.093,0.4-0.238c0.004,0.023,0,0.047,0.007,0.071l1.84,5.318
		c0.05,0.16,0.17,0.289,0.326,0.351c0.066,0.026,0.135,0.039,0.205,0.039c0.095,0,0.188-0.023,0.272-0.071
		c4.307-2.423,9.193-0.019,9.239,0.006c0.141,0.075,0.308,0.086,0.456,0.03c0.149-0.056,0.269-0.173,0.325-0.321l1.973-5.305
		c0.017-0.044,0.017-0.088,0.021-0.133c0.133,0.084,0.266,0.163,0.397,0.253V6.796C16.495,3.648,13.445,1.056,10.027,0.656z
		 M9.224,2.432c0.527,0,0.927,0.107,1.106,0.2l-0.206,0.807C9.918,3.352,9.631,3.272,9.27,3.272c-0.807,0-1.433,0.486-1.433,1.486
		c0,0.899,0.533,1.466,1.439,1.466c0.307,0,0.646-0.066,0.847-0.147l0.153,0.793C10.089,6.964,9.67,7.063,9.123,7.063
		c-1.553,0-2.353-0.966-2.353-2.246C6.772,3.285,7.865,2.432,9.224,2.432z M15.038,11.466l-1.759,4.748
		c-1.39-0.594-5.378-1.821-9.136-0.041L2.5,11.485c-0.026-0.086-0.076-0.158-0.136-0.218c2.372-1.119,7.577-2.87,12.87-0.042
		C15.151,11.286,15.078,11.363,15.038,11.466z"/>
</g>
<g>
</g>
<g>
</g>
<g>
</g>
<g>
</g>
<g>
</g>
<g>
</g>
<g>
</g>
<g>
</g>
<g>
</g>
<g>
</g>
<g>
</g>
<g>
</g>
<g>
</g>
<g>
</g>
<g>
</g>
</svg>
