<?xml version="1.0" encoding="utf-8"?>
<!-- Generator: Adobe Illustrator 19.0.0, SVG Export Plug-In . SVG Version: 6.00 Build 0)  -->
<svg version="1.1" id="Layer_1" xmlns="http://www.w3.org/2000/svg" xmlns:xlink="http://www.w3.org/1999/xlink" x="0px" y="0px"
	 viewBox="0 0 96 96" style="enable-background:new 0 0 96 96;" xml:space="preserve">
<style type="text/css">
	.st0{fill:#333333;}
</style>
<g id="XMLID_1_">
	<path id="XMLID_3_" class="st0" d="M60.4,21.7h-6.2c0-3.4-2.8-6.2-6.2-6.2s-6.2,2.8-6.2,6.2h-6.2V31h24.8V21.7z"/>
	<path id="XMLID_6_" class="st0" d="M69.7,24.8h-3.1v9.3H29.4v-9.3h-3.1c-3.4,0-6.2,2.8-6.2,6.2v43.3c0,3.4,2.8,6.2,6.2,6.2h43.3
		c3.4,0,6.2-2.8,6.2-6.2V31C75.9,27.6,73.1,24.8,69.7,24.8z M60.4,58.8h-9.3v9.3h-6.2v-9.3h-9.3v-6.2h9.3v-9.3h6.2v9.3h9.3V58.8z"/>
</g>
</svg>
